<svg xmlns="http://www.w3.org/2000/svg" width="163" height="64" viewBox="0 0 163 64" fill="none">
  <g clip-path="url(#clip0)">
    <path d="M29.6348 0.822632C29.7773 0.859109 30.0556 0.935378 30.198 0.971855C31.0594 1.60522 31.3278 2.64315 31.1621 3.66118C30.9898 5.87631 30.6552 8.07486 30.5128 10.29C33.6237 10.5951 36.7313 11.3213 39.4579 12.8931C41.0018 13.6757 42.2276 14.9258 43.6787 15.8411C45.587 14.0902 46.8757 11.7723 48.7675 10.0114C49.9369 8.88398 51.9943 10.6548 51.0534 11.9745C49.3373 14.0139 46.8724 15.2641 45.0867 17.2371C45.8918 18.7095 47.0811 19.9397 47.8199 21.4552C49.2611 24.1246 49.8044 27.1488 50.1125 30.1366C52.6404 30.0106 55.1351 29.4701 57.6662 29.4601C58.4746 29.3673 58.9185 30.1234 59.3757 30.644C59.4221 30.7004 59.5115 30.8131 59.5579 30.8695C54.9562 31.0253 50.3478 31.0519 45.746 30.8529C45.6764 25 42.3369 19.3064 37.1189 16.6005C34.9058 15.3171 32.3581 14.9491 29.8866 14.5113C29.5487 13.6989 29.5851 12.8036 29.5851 11.9414C29.6514 8.28377 29.605 4.62284 29.6348 0.965223V0.822632Z" fill="#79B835"/>
    <path d="M29.6547 25.5904C29.5553 22.3207 29.3168 19.008 29.8237 15.7616C30.4763 15.8644 31.129 15.9605 31.785 16.0534C31.7618 16.4613 31.7485 16.8724 31.7287 17.2803C31.2416 17.5655 30.7414 17.8308 30.3273 18.2155C30.4565 19.4722 31.1886 20.5898 31.2251 21.8664C31.2052 23.1033 31.0263 24.5226 29.9496 25.3118L29.6547 25.5904Z" fill="#79B835"/>
    <path d="M37.6755 19.9928C37.9969 19.6844 38.3215 19.3793 38.6495 19.0709C39.6898 20.0724 40.7168 21.0871 41.7041 22.1416C41.3695 22.4633 41.0415 22.7849 40.7069 23.1066C40.1603 22.9441 39.5937 22.4599 39.014 22.7683C38.2221 23.793 38.0631 25.2322 37.0063 26.0711C36.1913 26.7542 35.2636 27.5932 34.124 27.5037C33.3719 27.5004 33.087 26.615 33.2791 25.9982C33.5806 25 34.23 24.1345 34.9555 23.3984C35.7374 22.6191 36.9003 22.503 37.7948 21.9095C38.411 21.3756 37.7881 20.5996 37.6755 19.9928Z" fill="#79B835"/>
    <path d="M29.2638 26.4592L29.6845 26.5454C32.0103 26.6813 33.9351 28.6445 33.9848 30.9856C33.6834 30.9856 33.0804 30.9856 32.7789 30.9856C32.6364 29.4105 31.5531 27.8585 29.8303 27.8884C29.6415 27.4142 29.4559 26.9334 29.2638 26.4592Z" fill="#79B835"/>
    <path d="M43.0658 28.9097C43.5395 28.8931 44.0133 28.8798 44.4904 28.8665C44.5003 29.6027 44.5069 30.3389 44.5202 31.075C41.3032 31.0684 38.0863 31.075 34.8694 31.0485C35.7076 29.5662 37.5397 29.3507 39.0769 29.4104C40.2365 29.5231 41.2237 30.372 42.4065 30.2958C42.708 29.8779 42.8604 29.3772 43.0658 28.9097Z" fill="#79B835"/>
    <path d="M29.3698 31.0121C29.4394 30.4915 29.5222 29.9709 29.6812 29.4701C30.6983 29.2214 31.0131 30.2859 31.3344 30.9756C30.6785 30.9955 30.0258 31.0055 29.3698 31.0121Z" fill="#79B835"/>
    <path d="M30.1981 0.972139C31.722 0.793071 33.2527 0.952242 34.7833 0.94561C39.6401 0.94561 44.4937 0.94561 49.3506 0.94561C52.7133 0.892553 56.076 0.799703 59.4387 0.938978C59.3956 10.8407 59.5182 20.7458 59.3757 30.6443C58.9185 30.1236 58.4746 29.3676 57.6662 29.4604C55.1351 29.4704 52.6404 30.0109 50.1125 30.1369C49.8044 27.1491 49.2611 24.1249 47.8199 21.4555C47.0811 19.94 45.8918 18.7098 45.0867 17.2374C46.8724 15.2644 49.3373 14.0142 51.0534 11.9748C51.9943 10.655 49.937 8.88426 48.7675 10.0117C46.8757 11.7726 45.587 14.0905 43.6787 15.8414C42.2276 14.9261 41.0018 13.676 39.4579 12.8934C36.7313 11.3216 33.6237 10.5954 30.5128 10.2903C30.6553 8.07514 30.9899 5.87659 31.1621 3.66146C31.3278 2.64343 31.0594 1.60551 30.1981 0.972139Z" fill="#393083"/>
    <path d="M28.2069 2.30843C28.1771 1.48605 29.0882 1.31029 29.6348 0.965424C29.605 4.62304 29.6514 8.28397 29.5851 11.9416C29.5851 12.8038 29.5487 13.6991 29.8866 14.5115C32.3581 14.9493 34.9058 15.3173 37.1189 16.6007C42.3369 19.3066 45.6764 25.0002 45.746 30.8531C50.3478 31.0521 54.9562 31.0255 59.5579 30.8697C58.7496 31.2742 57.8484 31.0288 56.9937 31.0222C53.2268 30.9692 49.4599 31.0123 45.6996 31.0719C45.6334 35.731 43.5992 40.347 40.0311 43.3679C37.1752 45.855 33.4514 47.2245 29.6812 47.3605C29.6812 47.0852 29.6779 46.5314 29.6779 46.2562C30.3968 46.2496 31.1191 46.2396 31.838 46.223C31.8214 45.7124 31.8082 45.205 31.7916 44.6943C31.2615 44.4688 30.4929 44.4688 30.3173 43.7957C30.4896 42.645 31.3145 41.6568 31.2383 40.4564C31.2284 39.0404 31.0826 37.3227 29.6912 36.5634C29.6812 36.2583 29.6713 35.9499 29.6613 35.6415C31.9937 35.3895 34.1173 33.4429 33.9848 30.9857C33.9351 28.6446 32.0103 26.6815 29.6845 26.5455C29.6878 26.2968 29.6912 25.8027 29.6945 25.5573L29.9496 25.312C31.0263 24.5227 31.2052 23.1035 31.2251 21.8666C31.1886 20.5899 30.4565 19.4724 30.3273 18.2156C30.7414 17.8309 31.2416 17.5656 31.7287 17.2804C31.7485 16.8726 31.7618 16.4614 31.785 16.0535C31.129 15.9607 30.4763 15.8645 29.8237 15.7617C29.3168 19.0081 29.5553 22.3209 29.6547 25.5905C28.2566 24.9041 27.9618 23.2892 27.9187 21.8831C27.7895 20.56 28.8066 19.5055 28.9192 18.2189C28.5846 17.6916 27.9286 17.6187 27.3952 17.3998C27.4019 16.9356 27.4052 16.468 27.4118 16.0038C27.9353 16.0104 28.462 16.0237 28.9888 16.0203C29.6083 15.9076 29.9396 15.1151 29.4261 14.6674C25.0033 14.5978 20.6963 16.8162 17.7378 20.0527C14.9748 22.9874 13.6363 27.0197 13.6032 31.0089C9.071 30.999 4.53549 30.9692 0.0032959 31.0089C0.225267 30.3922 0.47043 29.5267 1.2788 29.5167C3.95571 29.5068 6.60943 30.0208 9.28303 30.1733C9.41886 25.3053 11.4729 20.623 14.6766 16.9953C12.9207 15.5992 11.241 14.1169 9.49506 12.7109C8.94179 12.2434 8.27919 11.7294 8.22618 10.9401C8.29244 10.1211 9.03787 9.33516 9.89262 9.42138C10.5619 9.42138 10.9793 10.0216 11.3901 10.4659C12.8644 12.2666 14.3619 14.0473 15.8627 15.8247C19.4374 12.628 24.0259 10.6284 28.8232 10.33C28.6608 7.65392 28.1473 4.99444 28.2069 2.30843ZM37.6755 19.993C37.7882 20.5998 38.411 21.3758 37.7948 21.9097C36.9003 22.5032 35.7374 22.6193 34.9555 23.3986C34.23 24.1347 33.5806 25.0002 33.2791 25.9984C33.087 26.6152 33.3719 27.5006 34.124 27.5039C35.2636 27.5934 36.1913 26.7544 37.0063 26.0713C38.0631 25.2324 38.2222 23.7932 39.014 22.7685C39.5937 22.4601 40.1603 22.9443 40.7069 23.1068C41.0415 22.7851 41.3695 22.4635 41.7041 22.1418C40.7169 21.0873 39.6898 20.0726 38.6495 19.0711C38.3215 19.3795 37.9969 19.6846 37.6755 19.993ZM43.0658 28.9099C42.8604 29.3774 42.708 29.8782 42.4065 30.296C41.2237 30.3723 40.2365 29.5233 39.0769 29.4106C37.5397 29.3509 35.7076 29.5665 34.8694 31.0487C35.5187 32.5808 37.3276 32.72 38.7688 32.7764C39.9582 32.8892 40.8958 31.9474 42.0421 31.8744C42.7842 31.8711 42.7941 32.7864 43.0525 33.2871C43.5462 33.2904 44.0431 33.2937 44.5401 33.297C44.5368 32.5575 44.5334 31.8181 44.5202 31.0753C44.5069 30.3391 44.5003 29.6029 44.4904 28.8668C44.0133 28.88 43.5395 28.8933 43.0658 28.9099ZM33.2195 36.444C33.5475 37.5151 34.3029 38.3971 35.0914 39.1698C35.9064 40.0154 37.3343 39.9126 38.0399 40.8908C38.1658 41.4512 37.7385 41.9122 37.5165 42.3897C37.8809 42.7445 38.242 43.096 38.6065 43.4475C39.7031 42.4261 40.7599 41.365 41.7869 40.2707C41.4159 39.9192 41.0481 39.5677 40.6771 39.2162C40.2795 39.4284 39.8886 39.6539 39.4579 39.7932C38.2354 39.256 38.4044 37.5946 37.4867 36.7524C36.6286 35.93 35.6711 35.0114 34.4486 34.839C33.5906 34.6798 32.9114 35.6713 33.2195 36.444Z" fill="#393083"/>
    <path d="M70.7195 4.11563C71.6802 2.43438 73.615 1.47272 75.52 1.47272C77.6138 1.44619 79.7076 1.48267 81.8015 1.46609C81.8015 2.25531 81.8015 3.04785 81.8015 3.84039C79.6381 3.90671 77.4316 3.63148 75.3047 4.13221C73.4162 4.65614 73.0452 6.93096 73.0319 8.60889C73.0253 10.2968 72.8795 12.628 74.7315 13.4371C77.0109 14.1832 79.4426 13.5067 81.7882 13.762C81.7982 14.6275 81.8015 15.4897 81.8081 16.3552C79.383 16.2856 76.9347 16.5243 74.5261 16.1927C72.2169 15.8678 70.3351 13.9212 69.8647 11.6729C69.3412 9.1693 69.4075 6.37718 70.7195 4.11563Z" fill="#393083"/>
    <path d="M84.3392 4.16212C85.2437 2.42782 87.2315 1.60875 89.0967 1.50264C91.227 1.42969 93.3606 1.15777 95.4908 1.42969C95.4875 2.28523 95.4875 3.14409 95.4875 4.00295C93.3539 4.06264 91.2104 3.88357 89.0901 4.09248C87.4601 4.33787 86.8207 6.04233 86.7279 7.48813C89.65 7.50471 92.5688 7.49145 95.4908 7.49476C95.4875 8.34036 95.4875 9.18595 95.4875 10.0315C92.5754 10.0448 89.6633 10.0216 86.7511 10.0481C86.8141 11.3746 87.1155 13.0027 88.5401 13.5101C90.7996 14.17 93.175 13.467 95.4842 13.7489C95.4875 14.6177 95.4875 15.4865 95.4842 16.352C92.9332 16.2591 90.3391 16.6007 87.8212 16.09C85.2603 15.6125 83.5176 13.1221 83.3586 10.6152C83.2493 8.43652 83.1764 6.10202 84.3392 4.16212Z" fill="#393083"/>
    <path d="M98.2638 1.46952C101.063 1.47283 103.866 1.46289 106.666 1.4662C108.087 1.45625 109.717 1.8376 110.519 3.12092C111.592 4.85522 111.572 7.3091 110.247 8.90413C109.743 9.51097 108.978 9.79284 108.306 10.1543C109.339 12.0942 110.476 13.9777 111.635 15.8446C111.625 15.9309 111.602 16.1099 111.592 16.1962C110.572 16.4946 109.485 16.3255 108.438 16.3321C107.322 14.4121 106.367 12.3794 105.148 10.5224C103.972 10.204 102.654 10.4461 101.424 10.4461C101.414 12.4158 101.424 14.3856 101.421 16.3553C100.368 16.3553 99.3174 16.3553 98.2671 16.3553C98.2605 11.3945 98.2671 6.43035 98.2638 1.46952ZM101.418 4.00631C101.421 5.28962 101.421 6.57625 101.418 7.85957C103.27 7.77004 105.188 8.10164 107 7.60423C108.564 7.20962 108.544 4.77563 107.093 4.26164C105.238 3.81729 103.306 4.06268 101.418 4.00631Z" fill="#393083"/>
    <path d="M118.208 1.47623C119.335 1.46959 120.461 1.46628 121.591 1.46628C123.721 6.41384 125.765 11.4012 127.895 16.3521C126.746 16.3554 125.596 16.3554 124.45 16.362C124.016 15.1583 123.522 13.9778 123.072 12.7807C120.878 12.7641 118.685 12.7774 116.492 12.7707C116.071 13.9579 115.644 15.1417 115.233 16.3322C114.252 16.3156 113.202 16.5079 112.271 16.2095C112.109 15.7187 112.367 15.2512 112.533 14.8035C114.441 10.3666 116.333 5.92638 118.208 1.47623ZM119.646 4.59001C118.977 6.43706 118.238 8.25757 117.582 10.1079C119.063 10.1113 120.547 10.1146 122.031 10.1046C121.355 8.21446 120.448 6.42379 119.646 4.59001Z" fill="#393083"/>
    <path d="M129.035 1.46971C130.566 1.46639 132.096 1.46639 133.63 1.46971C134.492 4.32152 135.535 7.11365 136.433 9.95551C136.721 10.9072 137.072 11.839 137.506 12.7344C138.692 8.95075 139.981 5.2036 141.263 1.45313C142.777 1.38018 144.295 1.44318 145.809 1.47303C145.829 6.43054 145.809 11.388 145.819 16.3489C144.821 16.3555 143.824 16.3555 142.827 16.3655C142.791 12.5619 143.026 8.76505 143.006 4.96152C141.475 8.6722 140.491 12.5785 139.146 16.3522C138.053 16.3555 136.963 16.3555 135.876 16.3555C134.548 12.6084 133.471 8.76505 131.947 5.09085C131.884 8.84463 132.199 12.5951 132.153 16.3489C131.112 16.3555 130.072 16.3555 129.035 16.3588C129.032 11.3947 129.035 6.43385 129.035 1.46971Z" fill="#393083"/>
    <path d="M152.226 1.55568C154.27 0.938888 156.506 0.948836 158.564 1.51257C160.605 2.08293 162.162 3.87692 162.566 5.94283C163.136 8.65868 163.142 11.7658 161.516 14.1335C160.071 16.1497 157.391 16.7631 155.042 16.6736C152.74 16.6073 150.122 15.8048 149.012 13.6029C147.873 11.3679 147.71 8.69847 148.184 6.26117C148.582 4.12231 150.142 2.22884 152.226 1.55568ZM154.459 3.71443C153.071 3.94656 151.885 5.03422 151.62 6.43029C151.136 8.44314 151.236 10.6583 152.107 12.5484C152.889 14.1003 154.86 14.1633 156.374 14.0473C158.166 13.9511 159.217 12.1571 159.452 10.5488C159.67 8.76148 159.674 6.81827 158.789 5.19671C157.928 3.74428 155.996 3.39941 154.459 3.71443Z" fill="#393083"/>
    <path d="M17.3999 21.9163C18.364 20.8618 19.3778 19.8537 20.4446 18.902C20.7361 19.2137 21.0276 19.5254 21.3159 19.8371C21.1337 20.3544 20.746 20.8883 20.9581 21.462C21.6372 22.3375 22.9426 22.2579 23.7311 23.0007C24.5759 23.8131 25.4108 24.7416 25.7321 25.8923C26.0071 26.7511 25.0033 27.6664 24.1849 27.2187C23.1347 26.7976 22.2303 26.0647 21.465 25.2423C20.7659 24.5062 20.8388 23.319 20.0901 22.6259C19.5335 22.0887 18.8643 22.6823 18.2778 22.8415C17.983 22.5331 17.6914 22.2247 17.3999 21.9163Z" fill="#393083"/>
    <path d="M71.021 26.2802C72.7371 25.1528 74.9005 25.2655 76.8684 25.2655C79.0053 25.3683 81.1488 25.229 83.2857 25.3551C83.236 26.2272 83.183 27.096 83.1168 27.9681C80.7049 27.9681 78.2963 27.9747 75.8878 27.9615C75.0562 27.9814 74.1617 27.9648 73.4295 28.4191C72.6344 29.2083 72.5151 30.8398 73.6184 31.4102C76.1893 32.0137 78.896 31.2941 81.4636 31.954C82.6629 32.2458 83.6203 33.2639 83.8291 34.4842C84.1239 35.9996 84.0212 37.7505 83.0008 38.9841C81.9804 40.148 80.3371 40.4431 78.8629 40.4431C75.7884 40.4431 72.7172 40.4398 69.6428 40.4398C69.6461 39.5544 69.6461 38.6724 69.6527 37.787C72.8332 37.7472 76.0137 37.8666 79.1908 37.7339C80.8573 37.6775 81.2118 34.8556 79.5785 34.4477C77.0274 33.8475 74.3042 34.7992 71.7962 33.8707C70.5571 33.4197 69.7852 32.1696 69.6461 30.8962C69.3744 29.2813 69.5632 27.2916 71.021 26.2802Z" fill="#393083"/>
    <path d="M84.7368 25.3352C89.1067 25.2987 93.4765 25.3153 97.8464 25.3253C97.8397 26.204 97.8364 27.0861 97.8364 27.9682C96.2164 27.9682 94.5963 27.9649 92.9763 27.9715C92.9796 32.1199 92.9829 36.2683 92.9763 40.4167C91.9028 40.4664 90.8195 40.5659 89.7494 40.4266C89.6036 39.896 89.6003 39.3423 89.6003 38.7951C89.6268 35.1872 89.6036 31.5794 89.6169 27.9715C87.9968 27.9649 86.3768 27.9748 84.7567 27.9516C84.7434 27.0795 84.7401 26.2073 84.7368 25.3352Z" fill="#393083"/>
    <path d="M102.859 25.4281C105.708 24.6853 109.147 24.7218 111.516 26.6981C113.186 28.134 113.364 30.4519 113.586 32.4913C113.785 34.9452 113.195 37.734 111.141 39.2992C109.124 40.8047 106.42 41.0401 104.002 40.6621C101.845 40.3437 99.8407 38.8979 99.1185 36.7989C98.2141 34.1825 98.1909 31.2312 99.208 28.6447C99.8573 27.0828 101.206 25.8393 102.859 25.4281ZM104.486 27.7261C103.276 28.1506 102.435 29.2913 102.16 30.5182C101.739 32.352 101.762 34.3384 102.428 36.1124C102.799 37.2067 103.84 37.9827 104.983 38.0921C106.288 38.2347 107.825 38.3143 108.829 37.2996C110.187 35.877 110.32 33.7448 110.154 31.8845C109.985 30.7272 109.796 29.4505 108.981 28.5485C107.765 27.5272 105.986 27.2453 104.486 27.7261Z" fill="#393083"/>
    <path d="M115.872 25.3416C117.174 25.335 118.5 25.1393 119.788 25.3847C122.035 28.84 123.728 32.6502 126.073 36.0458C125.964 32.4711 125.921 28.8964 125.961 25.3184C127.014 25.3151 128.068 25.3151 129.121 25.3151C129.128 30.3522 129.118 35.3893 129.128 40.4264C127.958 40.4396 126.779 40.6021 125.619 40.4031C124.639 39.4349 124.225 38.0554 123.479 36.9147C121.892 34.3348 120.61 31.5725 118.917 29.0589C118.957 32.8525 119.03 36.6427 119.003 40.4363C117.943 40.4032 116.827 40.6253 115.803 40.307C115.66 39.3685 115.786 38.4201 115.783 37.4784C115.942 33.4328 115.859 29.3872 115.872 25.3416Z" fill="#393083"/>
    <path d="M135.691 25.6801C138.308 25.0434 141.025 25.2954 143.688 25.3286C143.685 26.1908 143.685 27.0563 143.685 27.9184C141.949 28.0378 140.21 27.8455 138.474 27.9019C137.447 27.9317 136.33 28.187 135.631 28.9928C135.058 29.6826 135.008 30.6277 134.839 31.4699C137.788 31.5761 140.737 31.4932 143.688 31.523C143.685 32.3553 143.685 33.1877 143.682 34.0233C140.737 34.0664 137.791 34.0896 134.849 34.1991C134.972 35.5487 135.3 37.293 136.85 37.6644C139.11 37.9528 141.409 37.7075 143.685 37.7904C143.682 38.6724 143.685 39.5578 143.688 40.4399C141.177 40.3537 138.636 40.6355 136.145 40.2741C133.749 39.9259 131.99 37.8136 131.556 35.5122C131.116 33.1147 131.188 30.5116 132.308 28.2998C132.977 26.9833 134.246 25.9984 135.691 25.6801Z" fill="#393083"/>
    <path d="M25.0463 31.0323C25.1159 28.6878 27.0176 26.8375 29.2638 26.4594C29.4559 26.9336 29.6415 27.4145 29.8303 27.8887C31.5531 27.8588 32.6364 29.4107 32.7789 30.9859C32.6762 32.7102 31.3642 34.093 29.6845 34.3948C29.6514 33.9438 29.6249 33.4928 29.6017 33.0451C30.4399 32.614 31.2947 32.0205 31.3344 30.9759C31.0131 30.2862 30.6983 29.2217 29.6812 29.4704C29.5222 29.9712 29.4394 30.4918 29.3698 31.0124C28.8 31.019 28.2334 31.0257 27.6636 31.0356C27.9154 30.1237 28.6244 29.5202 29.4228 29.0957C29.8767 28.5817 29.4559 28.0478 29.171 27.5803C28.4587 27.9218 27.6272 28.1506 27.0905 28.7741C26.5306 29.3942 26.3682 30.2431 26.1297 31.019C25.858 31.0223 25.318 31.029 25.0463 31.0323Z" fill="#393083"/>
    <path d="M14.8157 28.9233C15.2464 28.9233 15.6804 28.9233 16.1111 28.9233C16.3662 29.4373 16.4656 30.3492 17.2177 30.3625C18.2646 30.3161 19.1293 29.5301 20.1828 29.4671C21.7002 29.3743 23.5256 29.5832 24.3274 31.0721H24.2711C21.1138 31.0555 17.9598 31.0655 14.8058 31.0655C14.8124 30.3492 14.8124 29.6363 14.8157 28.9233Z" fill="#393083"/>
    <path d="M57.6331 32.6039C58.5574 32.7266 59.0842 31.8943 59.5016 31.2211C59.3559 41.1394 59.4751 51.0611 59.442 60.9828C49.8011 61.006 40.1636 60.9264 30.5261 61.0259C31.0263 60.4721 31.5531 59.8387 31.3908 59.0329C31.1887 56.6122 30.8275 54.2047 30.6917 51.7807C35.5088 51.396 40.1934 49.4429 43.7251 46.1169C45.0205 47.6986 46.339 49.2572 47.6146 50.8588C48.0585 51.3794 48.4759 51.9564 49.0723 52.3179C50.1026 52.7888 51.4576 51.8603 51.345 50.7196C51.3616 50.0232 50.7685 49.5689 50.3113 49.1444C48.5555 47.6688 46.7565 46.2495 45.0105 44.7639C48.1413 41.2323 49.9337 36.6362 50.1126 31.9241C52.6271 32.0634 55.1185 32.5011 57.6331 32.6039Z" fill="#393083"/>
    <path d="M102.458 51.1541C103.949 48.9423 106.841 48.4017 109.333 48.5145C111.642 48.5775 114.246 49.4529 115.309 51.6747C116.542 54.2977 116.644 57.4214 115.733 60.1572C115.101 62.0938 113.341 63.4069 111.46 64.0005H106.126C103.873 63.5959 102.008 61.7887 101.57 59.5371C101.014 56.7748 100.858 53.6113 102.458 51.1541ZM107.153 51.2569C105.586 51.7742 104.714 53.4654 104.645 55.0372C104.559 56.7118 104.565 58.5025 105.34 60.0312C106.563 62.0009 109.492 62.1634 111.304 60.9597C112.583 59.9715 112.795 58.2007 112.894 56.6985C112.904 55.0339 112.692 53.1636 111.496 51.9002C110.31 50.902 108.584 50.9982 107.153 51.2569Z" fill="#393083"/>
    <path d="M71.6504 50.5007C72.8663 49.36 74.546 48.8361 76.1926 48.8228C78.674 48.8062 81.1588 48.8361 83.6435 48.8162C83.6535 49.7016 83.6568 50.587 83.6303 51.4724C81.3675 51.5287 79.1014 51.3895 76.8386 51.4326C75.5797 51.4259 74.1385 51.9631 73.7012 53.2531C73.0618 54.9708 73.022 56.8875 73.4063 58.6682C73.6416 59.7526 74.3207 60.8402 75.4803 61.079C77.0738 61.4404 78.7303 61.2647 80.3537 61.3144C80.4034 60.0908 80.3935 58.8672 80.3935 57.6469C78.9656 57.6469 77.5377 57.6502 76.1131 57.6369C76.1197 56.7648 76.123 55.896 76.123 55.0239C78.6276 55.0239 81.1323 55.0239 83.6369 55.0239C83.6369 57.9951 83.6369 60.9663 83.6369 63.9408C80.9368 63.9275 78.24 63.9573 75.5432 63.9341C73.5422 63.9175 71.5709 62.7934 70.6267 61.0127C69.603 59.096 69.4771 56.8212 69.762 54.7022C69.9939 53.1768 70.4644 51.5652 71.6504 50.5007Z" fill="#393083"/>
    <path d="M86.2773 48.8327C88.8814 48.8062 91.4887 48.8294 94.096 48.8128C95.5041 48.8194 97.0612 48.9819 98.1611 49.9502C100.45 52.172 99.6751 56.8509 96.4151 57.7032C97.5449 59.8254 98.9363 61.7985 100.059 63.9241C98.88 63.944 97.7006 63.944 96.5245 63.9108C95.4643 61.9278 94.2882 60.0078 93.3042 57.985C92.0287 57.9983 90.7532 57.9983 89.481 57.995C89.4744 59.9747 89.4744 61.951 89.4777 63.9307C88.4308 63.9407 87.3806 63.9407 86.3336 63.934C86.1448 58.9069 86.2376 53.8665 86.2773 48.8327ZM89.3717 51.4855C89.3783 52.7689 89.3783 54.0522 89.375 55.3388C91.27 55.2659 93.185 55.4914 95.0634 55.1896C96.7034 54.9376 96.7398 51.9465 95.0899 51.6779C93.2115 51.28 91.2733 51.4458 89.3717 51.4855Z" fill="#393083"/>
    <path d="M118.43 48.826C119.467 48.8227 120.507 48.8227 121.548 48.8227C121.833 52.3145 121.269 55.8295 121.743 59.3147C121.849 60.2565 122.363 61.2712 123.37 61.4834C124.89 61.8615 127.004 61.951 127.972 60.4621C128.644 58.6449 128.369 56.6353 128.459 54.7319C128.558 52.7755 128.184 50.7924 128.528 48.8592C129.552 48.7365 130.586 48.8061 131.613 48.8194C131.613 51.8901 131.613 54.9641 131.622 58.0347C131.606 59.4275 131.53 60.9529 130.635 62.0969C129.807 63.1448 128.498 63.6223 127.266 64.0003H122.87C121.614 63.6687 120.302 63.2012 119.444 62.1732C118.566 61.1154 118.48 59.6695 118.43 58.3531C118.42 55.1763 118.44 51.9995 118.43 48.826Z" fill="#393083"/>
    <path d="M134.704 48.833C137.397 48.8164 140.094 48.8231 142.791 48.8198C144.119 48.8164 145.527 49.0784 146.577 49.9505C149.221 52.1391 148.592 57.3122 145.133 58.3236C142.794 58.9172 140.339 58.496 137.954 58.6154C137.95 60.3895 137.95 62.1636 137.954 63.941C136.87 63.9377 135.79 63.9377 134.71 63.9377C134.7 58.9039 134.717 53.8701 134.704 48.833ZM137.877 51.4826C137.761 52.9781 137.775 54.477 137.788 55.9725C139.554 55.9294 141.333 56.0952 143.092 55.883C144.904 55.6276 145.212 52.9449 143.963 51.917C142.055 51.078 139.895 51.5157 137.877 51.4826Z" fill="#393083"/>
    <path d="M0.0032959 31.0089C4.53549 30.9691 9.071 30.999 13.6032 31.0089C13.6297 35.0678 15.0278 39.1764 17.8836 42.1177C20.8686 45.3608 25.1822 47.3704 29.605 47.4168C29.6448 51.9963 29.9198 56.5724 29.7342 61.1519C29.0352 60.7938 28.1075 60.3295 28.2434 59.3811C28.3461 56.8245 28.8099 54.2943 28.8994 51.7343C24.0723 51.3994 19.3579 49.4727 15.8097 46.16C14.0836 48.1463 12.5132 50.2719 10.7474 52.2218C10.0318 53.0043 8.71982 52.5799 8.30569 51.6978C7.86175 50.9882 8.36202 50.1525 8.94179 49.7049C10.8368 48.143 12.7319 46.5811 14.6203 45.0093C11.4928 41.3517 9.35923 36.7291 9.28966 31.8611C6.62931 32.017 3.98884 32.4912 1.32187 32.5409C0.533377 32.4514 0.178885 31.6854 0.0032959 31.0089Z" fill="#FFCB01"/>
    <path d="M27.6636 31.0354C28.2335 31.0255 28.8 31.0189 29.3698 31.0122C29.4328 31.6622 29.4361 32.3155 29.4295 32.9687C28.5449 32.6437 27.9486 31.9208 27.6636 31.0354Z" fill="#FFCB01"/>
    <path d="M14.8058 31.0652C17.9598 31.0652 21.1138 31.0553 24.271 31.0718C23.5819 32.6403 21.6836 32.7465 20.206 32.6702C19.0961 32.8028 18.3043 31.7118 17.2044 31.7981C16.4292 31.818 16.4126 32.6868 16.1509 33.2207C15.7136 33.2306 15.2762 33.2406 14.8389 33.2505C14.8422 32.521 14.8323 31.7914 14.8058 31.0652Z" fill="#FFCB01"/>
    <path d="M25.0463 31.032C25.318 31.0287 25.858 31.022 26.1297 31.0187C26.398 31.851 26.5372 32.8094 27.2263 33.4229C27.7994 34.0264 28.6608 34.1391 29.3897 34.4641C29.4129 34.736 29.4593 35.2765 29.4824 35.5451C27.1103 35.4158 25.1126 33.4229 25.0463 31.032Z" fill="#FFCB01"/>
    <path d="M24.3207 34.9485C25.1258 34.5572 26.2058 35.1872 26.0104 36.1323C25.742 37.2896 24.9237 38.2281 24.112 39.0538C23.2771 39.9988 21.5113 39.6938 21.1038 41.0633C21.2198 41.4911 21.3722 41.9056 21.561 42.3068C21.2761 42.6185 20.9912 42.9336 20.7063 43.2453C19.666 42.2571 18.6621 41.2324 17.6185 40.2509C17.9465 39.9159 18.2712 39.5777 18.5992 39.2395C19.3048 39.959 20.6135 39.9027 20.8586 38.7852C21.1999 36.958 22.7371 35.7211 24.3207 34.9485Z" fill="#FFCB01"/>
    <path d="M27.9054 40.4499C28.0181 39.0904 28.1241 37.4754 29.3665 36.6365C29.6448 39.7967 29.5189 42.9867 29.4526 46.1569C28.7768 46.1569 28.1075 46.1569 27.435 46.1536C27.4085 45.686 27.3853 45.2184 27.3654 44.7509C27.8822 44.5784 28.4554 44.4657 28.8596 44.0678C28.9921 42.7645 27.7961 41.7598 27.9054 40.4499Z" fill="#FFCB01"/>
  </g>
  <defs>
    <clipPath id="clip0">
      <rect width="163" height="64" fill="white" transform="translate(0 0.000488281)"/>
    </clipPath>
  </defs>
</svg>
